<?xml version="1.0" encoding="utf-8" ?><svg xmlns="http://www.w3.org/2000/svg" xmlns:xlink="http://www.w3.org/1999/xlink" width="1024" height="1024" viewBox="0 0 1024 1024"><path fill="#21211F" d="M0 0L1024 0L1024 281.489L1024 372.3L1024 538.809L1024 630.504L1024 1024L0 1024L0 0Z"/><path fill="#183939" d="M828.49 679.834C830.72 687.209 833.377 694.67 834.278 702.322C835.872 715.853 835.687 731.179 835.526 744.856C835.356 759.248 836.725 776.766 833.314 790.484C828.423 810.549 815.701 827.82 797.989 838.439C789.643 843.355 780.443 846.646 770.873 848.137C763.118 849.341 753.32 849.172 745.302 849.226C731.217 849.307 717.131 849.254 703.047 849.067C686.721 848.987 660.882 850.092 645.093 848.356C636.053 847.296 627.206 844.98 618.806 841.474C603.573 834.985 598.557 828.541 586.417 818.863C574.649 809.482 554.909 799.585 540.519 796.161C507.13 788.216 471.96 795.8 444 815.518C434.444 822.034 426.55 830.404 416.61 836.375C405.768 842.889 395.064 846.636 382.523 848.301C374.504 849.366 366.411 849.108 358.313 849.082L331.608 849.13L285.867 849.148C277.701 849.136 268.028 849.365 259.983 848.895C255.57 848.662 251.191 847.99 246.911 846.891C226.64 841.672 209.28 828.597 198.669 810.554C186.266 789.084 189.078 774.794 188.173 752.043C186.342 706.054 188.465 665.705 232.253 639.398C242.119 633.471 253.843 628.707 263.789 622.761C282.322 611.68 302.988 597.806 308.618 575.602C312.79 560.178 308.263 538.371 299.916 525.172C271.758 480.649 207.554 459.718 158.375 449.771C139.549 445.964 122.566 445.608 103.893 440.793C68.9981 432.143 39.0379 409.844 20.7354 378.901C6.79118 354.942 2.51082 330.275 1.79455 303.031C1.47629 290.926 0.95798 277.742 4.18404 265.893C8.56268 250.129 19.0948 236.787 33.4116 228.867C41.3914 224.284 50.3262 221.617 59.5123 221.076C81.3339 220.008 105.279 221.057 127.286 221.003L274.654 221.022L638.862 220.951L845.691 220.892L902.427 220.825C920.342 220.883 940.138 219.772 957.243 224.554C978.307 230.442 998.203 242.95 1011.26 260.662C1016.16 267.301 1019.95 274.315 1024 281.489L1024 372.3L1024 538.809L1024 630.504C1021.86 633.785 1019.93 639.725 1017.91 643.583C984.552 707.24 902.523 731.703 841.934 690.079C837.28 686.882 832.521 684.072 828.49 679.834Z"/><path fill="#21211F" d="M1024 538.809C1022.04 535.515 1016.82 522.156 1014.66 517.331C1006.65 499.421 996.464 482.036 990.879 463.268C981.843 432.898 998.468 414.583 1014.1 390.68C1017.5 385.477 1020.88 377.998 1024 372.3L1024 538.809Z"/><path fill="#1D6967" d="M57.6309 240.603C70.8242 239.874 87.4521 240.376 100.953 240.374L184.996 240.441L462.5 240.446L777.693 240.485L877.529 240.462C894.84 240.438 915.282 239.851 932.167 240.524C942.108 240.954 951.915 242.987 961.208 246.546C1015.08 267.689 1028.17 335.908 997.123 380.871C988.245 393.727 979.589 405.987 973.568 420.551C956.857 460.97 986.765 499.318 1001.38 535.153C1013.45 564.329 1016.7 595.875 1004.59 625.768C994.089 651.653 973.718 672.294 947.973 683.128C894.3 705.752 833.967 678.166 812.254 624.957C807.697 613.818 805.226 601.936 804.963 589.904C804.109 561.797 811.843 544.893 822.312 520.021C808.229 525.079 793.311 528.634 778.112 532.174C749.507 538.835 703.287 536.042 696.937 574.145C694.996 585.79 700.072 596.655 707.211 605.688C716.963 617.884 741.85 636.075 756.479 643.379C783.44 656.84 804.296 664.846 813.346 697.249C814.599 701.717 815.443 706.291 815.868 710.913C816.812 721.097 816.464 734.88 816.469 745.44C816.473 755.459 816.895 772.378 815.287 781.792C814.072 788.583 811.693 795.114 808.256 801.096C800.716 814.122 788.319 823.628 773.783 827.529C764.13 830.051 747.64 829.537 737.208 829.543L699.385 829.537C685.441 829.533 660.782 830.305 647.98 829.072C641.267 828.484 634.686 826.854 628.474 824.24C615.326 818.771 610.227 812.832 599.618 804.49C593.022 799.306 586.074 794.586 578.824 790.365C533.984 764.597 478.543 768.857 435.976 797.297C418.009 809.301 410.872 821.163 388.54 827.07C383.793 828.313 378.938 829.094 374.041 829.403C367.705 829.796 358.797 829.557 352.306 829.558L311.589 829.536L280.485 829.512C262.693 829.508 251.639 830.556 235.807 821.192C202.383 801.423 207.775 767.116 207.445 733.844C207.283 717.501 207.003 702.223 214.099 686.595C221.064 671.258 233.332 660.593 248.146 652.888C293.435 631.714 342.148 600.357 327.42 542.305C323.696 527.195 316.649 513.105 306.792 501.061C275.853 463.263 212.844 440.715 166.26 431.45C131.177 424.472 105.919 426.688 73.6262 406.636C48.5278 391.051 32.3489 366.437 25.4398 337.875C21.6253 322.106 19.1378 289.729 22.2442 274.249C23.2243 269.349 25.0819 264.665 27.7273 260.425C35.0548 248.647 44.5706 243.621 57.6309 240.603Z"/><path fill="#2A8F8C" d="M60.0944 259.622C72.0303 258.988 88.6151 259.507 101.054 259.509L181.206 259.525L425.723 259.559L773.391 259.506L870.422 259.508L905.225 259.501C919.846 259.49 936.209 258.411 949.997 262.878C966.396 268.097 979.979 279.743 987.639 295.154C992.614 304.934 994.197 313.367 994.792 323.991C996.434 353.332 979.968 371.098 965.451 394.018C958.769 404.568 952.088 420.717 950.345 433.188C940.973 500.278 1011.19 544.575 989.063 612.709C982.109 634.616 966.573 652.769 946.003 663.022C904.655 683.945 853.195 666.431 832.988 624.749C811.726 580.894 831.769 544.421 850.491 504.838C853.004 499.525 855.379 491.464 857.333 485.711C829.025 498.101 800.033 508.684 769.572 514.36C736.296 520.56 700.656 520.557 683.022 555.265C659.382 604.554 712.911 640.766 749.68 661.421C756.821 665.41 764.676 668.357 771.779 672.376C801.474 689.212 797.49 719.613 797.426 748.792C797.202 767.022 800.03 785.828 785.464 799.718C772.973 811.629 759.389 810.322 743.396 810.378C731.536 810.404 719.677 810.365 707.817 810.262C688.889 810.189 669.973 810.585 651.066 809.849C632.91 809.142 624.152 799.919 611.1 789.449C606.016 785.327 600.682 781.522 595.129 778.056C537.981 742.167 467.497 747.558 414.851 789.173C405.183 796.815 396.952 805.819 384.254 808.516C372.841 810.939 360.588 810.382 348.949 810.405L308.766 810.437L279.655 810.399C266.104 810.353 256.311 811.516 244.268 804.101C219.923 789.11 227.762 760.52 226.46 736.444C226.644 724.138 225.527 712.395 229.151 700.435C236.91 674.836 261.677 668.995 282.428 657.002C325.453 632.283 358.332 594.784 346.914 541.951C329.433 461.07 240.909 428.287 169.252 412.588C139.114 405.608 110.127 408.256 83.2396 390.315C49.5533 368.505 40.0137 332.776 40.2051 294.78C40.2839 279.148 40.1309 263.178 60.0944 259.622Z"/><path fill="#36E2DD" d="M641.31 278.961C666.458 278.184 693.718 278.716 719.02 278.744L840.216 278.764L900.251 278.771C921.438 278.704 944.102 275.49 960.823 291.049C970.208 299.749 975.681 311.871 976.001 324.664C976.737 348.526 962.804 361.78 951.236 380.371C940.678 397.34 933.021 415.295 930.914 435.347C928.053 462.573 936.082 485.442 946.837 509.816C960.116 539.909 981.032 567.552 972.094 602.414C969.972 610.689 966.755 618.407 961.434 625.143C956.57 634.08 941.825 645.992 931.569 647.969C927.018 651.083 921.955 651.665 916.624 652.269C884.22 655.941 853.978 635.89 845.378 603.954C833.596 560.201 868.628 524.39 877.626 483.843C880.319 471.705 881.829 463.382 880.826 450.621C854.769 468.238 821.203 481.601 790.888 489.779C779.052 492.968 767.078 495.625 755.004 497.742C724.447 502.871 703.366 503.917 679.709 527.454C657.852 549.2 652.069 583.738 665.515 611.305C679.596 639.517 710.271 660.911 736.965 676.369C763.212 691.569 778.122 688.098 778.358 723.64L778.44 755.362C778.445 761.717 778.962 769.992 777.704 776.075C774.272 792.669 759.339 791.174 746.265 791.092L723.022 791.029L679.982 791.09C668.913 791.094 653.107 792.108 642.705 788.641C634.695 785.971 626.773 777.002 619.847 771.81C596.242 753.944 568.685 742.016 539.503 737.035C490.92 729.237 439.729 744.405 401.574 775.255C392.487 782.601 385.959 790.695 373.146 790.909C338.456 791.488 303.749 790.781 269.049 791.123C239.849 791.349 245.963 767.318 245.521 747.42C245.325 737.283 245.512 727.592 245.5 717.495C245.475 689.059 271.434 686.577 290.699 674.537C330.76 650.368 367.456 616.055 367.83 565.649C368.537 470.223 278.879 421.014 198.13 399.694C183.778 395.94 169.252 392.887 154.603 390.545C132.383 387.009 114.407 387.314 94.4466 375.078C61.6329 354.962 58.8996 318.412 59.3199 283.702C59.2096 280.603 62.1345 278.407 65.1165 278.537C73.9097 278.922 82.7495 278.882 91.5516 278.885L159.159 278.894L491.504 278.87L595.604 278.883C604.828 278.924 614.051 278.893 623.274 278.788C628.393 278.738 636.321 278.494 641.31 278.961Z"/><path fill="#1D6967" d="M70.938 302.538C104.685 303.204 140.438 302.536 174.366 302.564L410.559 302.517L497.84 302.573C514.703 302.569 533.204 302.06 549.875 303.428C561.692 304.398 576.09 309.338 587.436 313.264C593.381 316.672 599.32 319.277 605.101 323.029C631.241 339.991 651.676 364.329 662.629 393.608C662.753 393.937 662.623 394.375 662.551 394.704C661.153 395.426 660.959 395.328 659.413 395.421C661.276 395.567 662.468 395.253 663.431 396.668C666.028 400.487 666.915 404.55 669.205 408.685C675.696 421.599 680.019 429.246 690.321 440.1C694.776 444.07 697.375 446.363 702.516 449.538C704.261 450.616 711.931 454.711 712.799 455.506C719.439 456.589 724.281 459.767 733.267 460.739C761.838 463.827 779.188 454.386 801.116 437.011C808.35 431.436 815.118 425.491 823.551 421.737C845.43 411.998 867.833 417.954 877.935 440.598C871.045 444.526 864.81 448.856 857.36 452.867C839.235 462.405 820.242 470.194 800.638 476.128C785.737 480.741 770.56 484.405 755.196 487.101C745.589 488.786 735.607 489.769 726.087 491.714C702.121 496.611 681.797 507.865 666.29 526.945C652.399 544.366 646.019 566.602 648.561 588.738C653.418 633.21 695.799 664.454 731.8 685.13C741.389 690.637 752.044 694.611 761.211 700.441C765.247 703.476 767.875 709.762 767.95 714.601C768.249 733.937 768.304 753.362 767.913 772.685C767.822 777.185 764.152 780.243 759.753 780.395C753.429 780.612 747.057 780.596 740.672 780.6L706.759 780.603L672.558 780.602C650.577 780.591 648.961 783.149 632.149 768.676C618.776 757.381 603.869 748.037 587.875 740.921C530.681 715.08 468.689 720.643 415.553 752.86C409.818 756.337 403.877 760.119 398.617 764.148C389.644 771.022 383.947 780.085 371.626 780.535C364.581 780.793 357.614 780.721 350.559 780.708L313.419 780.607L282.319 780.676C276.842 780.693 271.363 780.831 265.886 780.589C257.276 780.209 255.878 775.89 255.93 768.022C255.993 753.285 256.214 737.699 255.953 723.08C255.658 706.549 259.151 700.738 274.376 694.555C278.047 693.064 283.974 690.087 287.606 688.142C308.397 677.205 327.328 663.047 343.697 646.195C366.738 622.206 378.881 593.377 378.065 559.907C377.441 535.08 370.299 510.854 357.357 489.659C321.882 431.239 252.363 402.271 188.741 386.622C176.968 383.743 165.066 381.414 153.075 379.643C130.141 376.177 108.145 375.905 89.9581 358.339C74.0561 342.98 71.2433 323.496 70.938 302.538Z"/><path fill="#2BABA8" d="M96.6965 328.779C103.872 328.32 112.716 328.538 119.997 328.54L158.191 328.546L275.922 328.573L379.72 328.585L413.542 328.527C430.19 328.503 441.242 327.873 457.642 331.623C486.126 338.136 501.764 357.08 523.338 374.074C533.302 381.922 548.754 388.967 561.235 392.13C576.182 395.917 588.28 394.996 603.243 395.265C621.556 395.595 641.227 394.638 659.413 395.421C661.276 395.567 662.468 395.253 663.431 396.668C666.028 400.487 666.915 404.55 669.205 408.685C675.696 421.599 680.019 429.246 690.321 440.1C694.776 444.07 697.375 446.363 702.516 449.538C704.261 450.616 711.931 454.711 712.799 455.506L632.747 455.543C610.43 455.557 580.912 457.131 559.778 451.957C527.97 444.17 502.074 415.63 481.657 391.422C472.778 380.809 464.836 369.948 453.699 361.483C432.931 345.698 411.199 346.32 386.658 346.279L338.899 346.328L171.814 346.328C159.015 346.367 121.443 348.169 110.866 344.241C103.215 341.399 99.9157 335.794 96.6965 328.779Z"/><path fill="#36E2DD" d="M430.059 339.846C450.744 338.127 464.453 342.842 482.05 353.43C486.829 356.306 493.514 360.132 497.681 363.595C517.407 379.989 534.331 396.514 559.626 404.341C577.758 409.951 595.459 408.568 614.277 408.706C632.512 408.84 650.865 408.431 669.205 408.685C675.696 421.599 680.019 429.246 690.321 440.1L620.06 440.123C603.156 440.149 583.052 441.052 566.578 437.912C534.375 431.752 504.15 403.774 483.218 379.341C463.261 356.046 461.71 349.652 430.059 339.846Z"/><path fill="#183939" d="M185.092 365.672C191.622 365.335 200.78 365.596 207.439 365.596L251.72 365.611L394.335 365.81C403.057 365.841 410.723 365.535 419.367 367.119C443.87 371.61 453.643 387.693 468.595 405.751C475.783 414.407 483.357 422.735 491.293 430.711C507.437 446.931 524.68 460.384 546.647 467.981C555.894 471.11 565.457 473.21 575.163 474.244C588.915 475.678 611.685 475.055 626.288 475.042L711.974 475.118C692.49 480.723 671.882 492.49 657.896 507.326C637.903 528.534 627.946 553.583 628.777 582.942C630.321 637.51 675.396 673.943 718.424 699.67C722.905 702.349 746.712 713.697 748.121 715.544C749.642 717.537 749.042 757.055 749.053 761.197C727.476 760.805 705.386 761.46 683.806 761.178C676.912 761.088 660.12 761.632 653.934 760.611C649.177 757.726 644.621 753.474 640.213 749.996C577.103 700.195 494.63 691.147 422.287 727.016C413.717 731.202 405.452 735.985 397.553 741.33C389.403 746.778 381.984 753.061 374.358 758.83C369.624 762.412 351.055 761.259 344.45 761.287L274.971 761.314C275.08 746.079 275.084 730.843 274.982 715.608C279.579 713.462 284.155 711.271 288.708 709.034C331.737 687.816 375.237 653.069 390.542 606.016C406.405 557.247 393.361 503.473 362.732 463.348C325.605 414.71 266.999 388.554 209.688 371.957C201.924 369.713 193.12 368.419 185.567 365.839L185.092 365.672Z"/><path fill="#21211F" d="M296.77 385.015L371.205 385.157C382.009 385.129 407.083 384.364 416.822 386.173C422.813 387.263 428.409 389.919 433.041 393.873C439.492 399.424 449.2 411.988 455.037 419.012C463.925 429.814 473.42 440.103 483.475 449.828C508.586 473.696 539.867 491.246 574.763 493.58C596.343 495.023 622.155 494.759 643.8 494.189C636.714 502.449 630.448 510.156 625.031 519.789C609.38 547.619 605.182 581.702 613.946 612.506C625.603 653.473 658.917 683.703 693.223 706.617C704.305 714.018 717.763 721.125 729.514 727.492C729.804 732.724 729.789 736.28 729.632 741.482C719.393 741.461 664.515 742.672 660.135 740.475C654.474 737.637 649.971 732.554 644.779 728.938C635.49 722.468 625.593 716.66 615.675 711.217C608.102 707.056 597.817 702.735 589.72 699.696C529.472 677.432 462.528 682.408 406.234 713.337C399.21 717.157 392.963 721.514 386.515 725.563C381.463 728.735 367.635 740.341 363.949 741.039C359.466 741.887 343.836 741.508 338.078 741.488L294.436 741.523L294.375 727.467C301.418 724.743 312.409 718.309 318.89 714.26C348.702 695.638 375.409 674.398 393.871 644.052C416.576 606.733 422.069 564.462 411.822 522.312C399.574 471.934 368.611 432.587 326.564 403.357C316.146 396.115 307.342 391.547 296.77 385.015Z"/><path fill="#183939" d="M487.101 322.047C493.828 321.636 505.34 321.972 512.324 321.96C524.894 321.939 540.321 321.376 552.431 323.24C578.215 327.449 601.819 340.252 619.41 359.568C624.187 364.744 627.956 369.962 632.125 375.61C613.813 376.758 584.632 376.726 566.88 373.802C545.397 370.264 525.445 350.937 509.625 337.412C502.954 331.709 494.711 326.807 487.101 322.047Z"/><path fill="#183939" d="M840.755 435.571C842.528 435.462 844.556 435.09 845.692 436.584C843.001 440.458 810.921 452.247 804.384 454.709L797.729 456.689C812.679 448.424 823.893 439.477 840.755 435.571Z"/><path fill="#68EDE5" d="M641.31 278.961C666.458 278.184 693.718 278.716 719.02 278.744L840.216 278.764L900.251 278.771C921.438 278.704 944.102 275.49 960.823 291.049C970.208 299.749 975.681 311.871 976.001 324.664C976.737 348.526 962.804 361.78 951.236 380.371C940.678 397.34 933.021 415.295 930.914 435.347C928.053 462.573 936.082 485.442 946.837 509.816C960.116 539.909 981.032 567.552 972.094 602.414C969.972 610.689 966.755 618.407 961.434 625.143C956.57 634.08 941.825 645.992 931.569 647.969C920.46 645.443 917.694 644.747 908.459 637.427L906.853 636.935C888.557 608.914 903.275 582.462 910.265 553.009C917.772 521.376 918.283 496.659 916.042 464.29C913.631 429.482 913.5 392.382 880.825 370.921C837.605 342.535 790.56 371.62 745.306 352.677C711.13 338.976 692.096 315.376 664.2 292.733C655.761 286.037 649.876 284.365 642.13 279.488L641.31 278.961Z"/><path fill="#36E2DD" d="M908.459 637.427C912.738 637.738 917.222 638.534 921.867 638.838C932.537 639.712 942.752 635.993 952.138 631.275C955.45 629.61 957.72 626.761 961.434 625.143C956.57 634.08 941.825 645.992 931.569 647.969C920.46 645.443 917.694 644.747 908.459 637.427Z"/><path fill="#ACF9F2" d="M872.315 296.222C888.184 295.243 910.834 296.458 926.255 299.969C934.488 301.844 943.325 306.357 947.638 313.972C952.727 322.636 951.559 333.502 948.017 342.502C946.37 346.686 943.946 350.638 942.942 355.102C938.793 326.573 936.581 315.548 904.623 317.317C875.026 319.093 815.966 313.73 787.757 305.327C807.433 299.119 850.801 297.313 872.315 296.222Z"/><path fill="#ACF9F2" d="M940.46 534.31C943.095 536.246 947.508 546.091 948.985 549.387C956.144 565.368 960.401 584.236 953.601 601.092C950.014 609.986 944.944 616.928 935.971 620.847C935.84 620.866 935.709 620.884 935.577 620.902L934.92 620.98C931.516 621.397 927.36 621 924.727 618.54C917.654 612.044 929.202 603.043 933.21 597.757C948.435 577.677 941.562 556.925 940.484 534.89L940.46 534.31Z"/><path fill="#ACF9F2" d="M735.643 300.695C739.641 300.073 756.576 300.254 756.163 306.006C753.648 308.804 746.732 308.734 742.934 308.986C733.087 309.125 728.082 308.19 719.059 304.559C725.248 302.248 729.137 301.424 735.643 300.695Z"/><path fill="#2BABA8" d="M587.436 313.264C592.591 313.382 600.647 317.177 605.716 319.117C627.84 327.526 653.953 340.329 670.2 357.895C687.151 376.223 697.049 396.338 720.124 408.968C749.806 425.214 774.119 409.782 801.837 398.752C827.476 388.549 859.165 385.294 879.69 407.462C927.99 465.208 846.318 533.641 865.084 595.974C871.429 617.051 887.862 630.593 906.853 636.935L908.459 637.427C917.694 644.747 920.46 645.443 931.569 647.969C927.018 651.083 921.955 651.665 916.624 652.269C884.22 655.941 853.978 635.89 845.378 603.954C833.596 560.201 868.628 524.39 877.626 483.843C880.319 471.705 881.829 463.382 880.826 450.621C880.183 446.582 879.564 444.279 877.935 440.598C867.833 417.954 845.43 411.998 823.551 421.737C815.118 425.491 808.35 431.436 801.116 437.011C779.188 454.386 761.838 463.827 733.267 460.739C724.281 459.767 719.439 456.589 712.799 455.506C711.931 454.711 704.261 450.616 702.516 449.538C697.375 446.363 694.776 444.07 690.321 440.1C680.019 429.246 675.696 421.599 669.205 408.685C666.915 404.55 666.028 400.487 663.431 396.668C662.468 395.253 661.276 395.567 659.413 395.421C660.959 395.328 661.153 395.426 662.551 394.704C662.623 394.375 662.753 393.937 662.629 393.608C651.676 364.329 631.241 339.991 605.101 323.029C599.32 319.277 593.381 316.672 587.436 313.264Z"/><path fill="#36E2DD" d="M694.666 410.873C695.366 411.051 708.529 422.496 710.359 423.826C719.992 430.823 728.945 434.823 740.1 435.043C747.95 435.198 768.035 429.674 771.684 432.341L771.787 433.664C770.847 435.915 769.639 436.725 767.832 438.376C747.406 454.329 716.942 445.654 702.464 426.005C698.767 420.987 695.718 417.301 694.666 410.873Z"/><path fill="#21211F" d="M789.22 549.607L789.516 549.623C790.375 550.777 788.63 557.077 788.245 558.917C786.554 566.874 785.63 574.974 785.485 583.107C785.215 606.195 789.401 624.37 800.204 644.63C792.518 638.701 779.85 633.466 771.007 628.944C765.41 626.082 761.391 623.802 756.042 620.492C744.696 613.205 720.269 596.952 717.024 583.802C711.086 559.736 746.149 557.539 761.602 555.028C770.34 553.608 780.477 551.754 789.22 549.607Z"/></svg>